<?xml version="1.0" encoding="utf-8"?>
<svg xmlns="http://www.w3.org/2000/svg" xmlns:xlink="http://www.w3.org/1999/xlink" x="0px" y="0px" viewBox="0 0 27 40" style="enable-background:new 0 0 27 40;" xml:space="preserve">
  <style>
    .st0{fill:#A17C30;stroke:#010A13;stroke-width:0.462;stroke-linejoin:round;stroke-opacity:0.45;}
  </style>
  <path class="st0" d="M17.2,15.6c0-2-1.7-3.7-3.7-3.7s-3.7,1.7-3.7,3.7v2.3h1.8v-2.3c0-1,0.8-1.8,1.8-1.8s1.8,0.8,1.8,1.8 v2.3h2V15.6z M8.4,17.9v6.5l5.1,3.7l5.1-3.7v-6.5H8.4z M12.6,23c0,0-0.9-1-0.9-1.8c0-1,0.8-1.8,1.8-1.8s1.8,0.8,1.8,1.8 c0,0.9-0.9,1.8-0.9,1.8v1.4h-1.8C12.6,24.4,12.6,23,12.6,23z" />
</svg>
