<?xml version="1.0" encoding="utf-8"?>
<!-- Generator: Adobe Illustrator 21.1.0, SVG Export Plug-In . SVG Version: 6.00 Build 0)  -->
<svg version="1.1" id="Layer_1" xmlns="http://www.w3.org/2000/svg" xmlns:xlink="http://www.w3.org/1999/xlink" x="0px" y="0px"
	 viewBox="0 0 24 30" style="enable-background:new 0 0 24 30;" xml:space="preserve">
<path d="M11.9,1.8L12,7.7c0,0-5.8,6.8-6,7.6c2.1,0.7,4.1,1.7,5.9,3.1c0.9-0.9,1.6-2,2-3.1l-2-1.9c-0.8,0.6-1.4,1.3-1.9,2.1
	c-0.4-0.3-0.9-0.6-1.4-0.7c0.8-1.6,1.9-3.1,3.2-4.4c1.3,1.8,2.7,3.5,4.4,5c-1.3,1.8-2.8,3.4-4.3,5c0,0-1.7-1.8-9.3-4.9
	C2.6,15.5,9.7,9.2,11.9,1.8z"/>
<path d="M13,8.4c1.4,2.6,3.3,5,5.6,7c0,0-4.2,5.3-6.8,7.4v5.5c0,0,2.3-6.3,9.6-12.9C21.5,15.3,18.2,13,13,8.4z"/>
</svg>
